<svg width="42" height="37" viewBox="0 0 42 37" fill="none" xmlns="http://www.w3.org/2000/svg">
<rect width="42" height="37" fill="white"/>
<rect width="27.75" height="37" fill="#FBB731"/>
<path fill-rule="evenodd" clip-rule="evenodd" d="M26.7589 4.625H28.7411C35.8533 4.63319 41.6168 10.3967 41.625 17.5089C41.625 18.0563 41.1813 18.5 40.6339 18.5H14.8661C14.3187 18.5 13.875 18.0563 13.875 17.5089C13.8832 10.3967 19.6467 4.63319 26.7589 4.625ZM26.759 6.60694C21.1246 6.61368 16.421 10.9073 15.9018 16.5176H39.5983C39.0792 10.9072 34.3755 6.61368 28.7412 6.60694H26.759Z" fill="#443737"/>
<path fill-rule="evenodd" clip-rule="evenodd" d="M36.6697 24.5181H40.634C41.1813 24.5181 41.6251 24.9578 41.625 25.5002V27.4644C41.6217 30.1751 39.4051 32.3718 36.6697 32.375H18.8303C16.0949 32.3718 13.8783 30.1751 13.875 27.4644V25.5002C13.875 24.9578 14.3187 24.5181 14.8661 24.5181H28.741C28.9555 24.5181 29.1641 24.5869 29.3357 24.7145L32.7053 27.2189L36.075 24.7145C36.2466 24.587 36.4552 24.5181 36.6697 24.5181ZM36.6695 30.411C38.3115 30.411 39.6427 29.0919 39.6427 27.4647V26.4825H36.9995L33.2998 29.2325C32.9474 29.4944 32.4629 29.4944 32.1105 29.2325L28.4108 26.4825H15.8569V27.4647C15.8569 29.0919 17.1881 30.411 18.8302 30.411H36.6695Z" fill="#443737"/>
<path d="M40.6339 20.5061H14.8661C14.3187 20.5061 13.875 20.9552 13.875 21.5091C13.875 22.063 14.3187 22.5121 14.8661 22.5121H40.6339C41.1813 22.5121 41.625 22.0631 41.625 21.5091C41.625 20.9551 41.1813 20.5061 40.6339 20.5061Z" fill="#443737"/>
<path d="M22.7349 10.4756C22.181 10.4756 21.7319 10.9246 21.7319 11.4786V12.4816C21.7319 13.0356 22.181 13.4846 22.7349 13.4846C23.2889 13.4846 23.738 13.0356 23.738 12.4816V11.4786C23.738 10.9246 23.2889 10.4756 22.7349 10.4756Z" fill="#443737"/>
<path d="M27.7498 10.4756C27.1959 10.4756 26.7468 10.9246 26.7468 11.4786V12.4816C26.7468 13.0356 27.1959 13.4846 27.7498 13.4846C28.3038 13.4846 28.7528 13.0355 28.7528 12.4816V11.4785C28.7528 10.9246 28.3038 10.4756 27.7498 10.4756Z" fill="#443737"/>
<path d="M32.765 10.4756C32.211 10.4756 31.762 10.9246 31.762 11.4786V12.4816C31.762 13.0356 32.211 13.4846 32.765 13.4846C33.3189 13.4846 33.768 13.0356 33.768 12.4816V11.4786C33.7679 10.9246 33.3189 10.4756 32.765 10.4756Z" fill="#443737"/>
</svg>
